# xmcd
#
# Track frame offsets: 
#        150
#        12040
#        28847
#        41305
#        57922
#        71335
#        85752
#        101670
#        112935
#        131450
#        152825
#        170962
#
# Disc length: 2548 seconds
#
# Revision: 2
# Processed by: cddbd v1.5.1PL0 Copyright (c) Steve Scherf et al.
# Submitted via: ExactAudioCopy v0.95b3
#
DISCID=9209f20c
DTITLE=The Golden Sax Ensemble - I Will Always Love You
DYEAR=1993
DGENRE=Easy Listening
TTITLE0=When A Man Loves A Woman
TTITLE1=It Had To Be You
TTITLE2=Since I Fell For You
TTITLE3=I Love You For Sentimental Resons
TTITLE4=I Will Always Love You
TTITLE5=Our Love Is Here To Stay
TTITLE6=La Mer
TTITLE7=Full Moon And Empty Arms
TTITLE8=When I Fall In Love
TTITLE9=Stardust
TTITLE10=As Times Goes By
TTITLE11=I'm In The Mood For Love
EXTD=
EXTT0=
EXTT1=
EXTT2=
EXTT3=
EXTT4=
EXTT5=
EXTT6=
EXTT7=
EXTT8=
EXTT9=
EXTT10=
EXTT11=
PLAYORDER=
